<svg xmlns="http://www.w3.org/2000/svg" width="27.98" height="28" viewBox="0 0 27.98 28">
  <g id="cart" transform="translate(-1.125 -1.125)">
    <path id="Path_41" data-name="Path 41" d="M9.519,5.791V7.656H27.24v3.693L25.17,17.916H8.932L6.6,1.125H1.125V2.99H4.976L7.308,19.781h19.23l2.567-8.145V5.791Z" fill="#fff"/>
    <path id="Path_42" data-name="Path 42" d="M11.675,25.9a3.731,3.731,0,1,0,3.731,3.731A3.735,3.735,0,0,0,11.675,25.9Zm0,5.6A1.865,1.865,0,1,1,13.54,29.63,1.865,1.865,0,0,1,11.675,31.5Z" transform="translate(-1.166 -4.235)" fill="#fff"/>
    <path id="Path_43" data-name="Path 43" d="M27.425,25.9a3.731,3.731,0,1,0,3.731,3.731A3.735,3.735,0,0,0,27.425,25.9Zm0,5.6A1.865,1.865,0,1,1,29.29,29.63,1.865,1.865,0,0,1,27.425,31.5Z" transform="translate(-3.858 -4.235)" fill="#fff"/>
  </g>
</svg>
