<svg id="Group_1066" data-name="Group 1066" xmlns="http://www.w3.org/2000/svg" width="28.001" height="28" viewBox="0 0 28.001 28">
  <path id="Path_9" data-name="Path 9" d="M3.834,20.631l-1.048.244Zm0-8.76-1.048-.244Zm24.834,0-1.048.247Zm0,8.76-1.048-.247Zm-8.037,8.037-.247-1.048Zm-8.76,0,.247-1.048Zm0-24.834.247,1.048Zm8.76,0-.247,1.048Zm-9.937,16.9a1.077,1.077,0,1,0,2.154,0Zm2.154-5.975a1.077,1.077,0,1,0-2.154,0Zm6.807,5.974a1.077,1.077,0,1,0,2.154,0Zm2.154-4.48a1.077,1.077,0,0,0-2.154,0Zm-6.634,2.987a1.077,1.077,0,1,0,2.154,0Zm2.154-7.467a1.077,1.077,0,1,0-2.154,0ZM4.882,20.382a18.1,18.1,0,0,1,0-8.266l-2.1-.493a20.253,20.253,0,0,0,0,9.251ZM27.62,12.117a18.1,18.1,0,0,1,0,8.266l2.1.493a20.254,20.254,0,0,0,0-9.251l-2.1.493Zm-7.236,15.5a18.1,18.1,0,0,1-8.266,0l-.493,2.1a20.252,20.252,0,0,0,9.251,0l-.493-2.1ZM12.118,4.882a18.1,18.1,0,0,1,8.266,0l.493-2.1a20.252,20.252,0,0,0-9.251,0l.493,2.1Zm0,22.738a9.709,9.709,0,0,1-7.236-7.236l-2.1.493a11.863,11.863,0,0,0,8.84,8.84Zm8.758,2.1a11.863,11.863,0,0,0,8.84-8.84l-2.1-.493a9.709,9.709,0,0,1-7.236,7.236l.493,2.1ZM20.384,4.882a9.709,9.709,0,0,1,7.236,7.236l2.1-.493a11.863,11.863,0,0,0-8.84-8.84l-.493,2.1Zm-8.757-2.1a11.863,11.863,0,0,0-8.84,8.84l2.1.493A9.709,9.709,0,0,1,12.12,4.882l-.493-2.1Zm1.221,17.947V14.758H10.694v5.974h2.154Zm8.964,0V16.251H19.657v4.48h2.154Zm-4.482-1.493v-7.47H15.175v7.47Z" transform="translate(-2.25 -2.25)" fill="#979ea3"/>
</svg>
