<svg xmlns="http://www.w3.org/2000/svg" width="28" height="28" viewBox="0 0 28 28">
  <path id="noun-market-place-1581277" d="M116.618,25.348l-2-6h0a1,1,0,0,0-.949-.684h-22a1,1,0,0,0-.949.684l-2,6h0a1.021,1.021,0,0,0-.051.289v1.027a4.979,4.979,0,0,0,2,3.978V43.664a3,3,0,0,0,3,3h18a3,3,0,0,0,3-3V30.643a4.979,4.979,0,0,0,2-3.978V25.637a1.021,1.021,0,0,0-.051-.289Zm-2.336-.684h-4.613v-4h3.279Zm-10.613,0v-4h4v4Zm-6,0v-4h4v4Zm-5.279-4h3.279v4H91.056Zm8.279,24v-8h4v8Zm12-1a1,1,0,0,1-1,1h-5v-9a1,1,0,0,0-1-1h-6a1,1,0,0,0-1,1v9h-5a1,1,0,0,1-1-1v-12.1a4.943,4.943,0,0,0,4-.918,5.068,5.068,0,0,0,6,0,5.068,5.068,0,0,0,6,0,4.943,4.943,0,0,0,4,.918Zm-1-14a2.955,2.955,0,0,1-2.247-1.038,1,1,0,0,0-1.506,0,3.017,3.017,0,0,1-4.494,0,1.034,1.034,0,0,0-1.506,0,3.017,3.017,0,0,1-4.494,0,1.034,1.034,0,0,0-1.506,0,2.955,2.955,0,0,1-2.247,1.038,3,3,0,0,1-3-3h24a3,3,0,0,1-3,3Z" transform="translate(-88.669 -18.664)" fill="#979ea3"/>
</svg>
