<svg xmlns="http://www.w3.org/2000/svg" width="34.087" height="28" viewBox="0 0 34.087 28">
  <g id="noun-friends-3020220" transform="translate(-104.997 -87.5)">
    <path id="Path_60" data-name="Path 60" d="M114.127,173.326a6.715,6.715,0,0,0-6.456,4.87h12.913a6.715,6.715,0,0,0-6.456-4.87Zm0-2.435a9.148,9.148,0,0,1,9.083,8.056l.039.321a1.217,1.217,0,0,1-1.209,1.363H106.214a1.217,1.217,0,0,1-1.209-1.363l.039-.321a9.149,9.149,0,0,1,9.083-8.056Zm0-13.391a5.478,5.478,0,1,1-5.478,5.478A5.478,5.478,0,0,1,114.127,157.5Zm0,2.435a3.043,3.043,0,1,0,3.043,3.043A3.043,3.043,0,0,0,114.127,159.935Z" transform="translate(0 -65.13)" fill="#979ea3"/>
    <path id="Path_61" data-name="Path 61" d="M356.087,102.109a10.771,10.771,0,0,1,10.719,9.713l.231,2.342a1.217,1.217,0,0,1-1.211,1.337h-9.739a1.217,1.217,0,0,1,0-2.435h8.4l-.1-1a8.339,8.339,0,0,0-12.126-6.587,1.217,1.217,0,0,1-1.12-2.162,10.735,10.735,0,0,1,4.949-1.2Zm0-14.609A6.087,6.087,0,1,1,350,93.587,6.087,6.087,0,0,1,356.087,87.5Zm0,2.435a3.652,3.652,0,1,0,3.652,3.652A3.652,3.652,0,0,0,356.087,89.935Z" transform="translate(-227.96)" fill="#979ea3"/>
  </g>
</svg>
