<svg xmlns="http://www.w3.org/2000/svg" width="25.961" height="28" viewBox="0 0 25.961 28">
  <g id="bx-message-alt-dots" transform="translate(-4.5 -3)">
    <path id="Path_8" data-name="Path 8" d="M27.576,3H7.385A2.887,2.887,0,0,0,4.5,5.885V23.192a2.887,2.887,0,0,0,2.885,2.885h5.172L17.48,31,22.4,26.076h5.172a2.887,2.887,0,0,0,2.885-2.885V5.885A2.887,2.887,0,0,0,27.576,3Zm0,20.192H21.21l-3.73,3.73-3.73-3.73H7.385V5.885H27.576Z" fill="#979ea3"/>
    <path id="Path_9" data-name="Path 9" d="M25.269,14.885A2.885,2.885,0,1,1,22.385,12a2.885,2.885,0,0,1,2.885,2.885Z" transform="translate(-0.577 -0.346)" fill="#979ea3"/>
    <path id="Path_10" data-name="Path 10" d="M16.269,14.885A2.885,2.885,0,1,1,13.385,12a2.885,2.885,0,0,1,2.885,2.885Z" transform="translate(-0.231 -0.346)" fill="#979ea3"/>
  </g>
</svg>
