<svg xmlns="http://www.w3.org/2000/svg" width="35.062" height="30.053" viewBox="0 0 35.062 30.053">
  <g id="noun-social-media-3693533" transform="translate(-105 -70)">
    <path id="Path_77" data-name="Path 77" d="M136.305,70H108.757A3.756,3.756,0,0,0,105,73.757V96.3a3.756,3.756,0,0,0,3.757,3.757h27.549a3.756,3.756,0,0,0,3.757-3.757V73.757A3.756,3.756,0,0,0,136.305,70Zm-18.783,3.757a1.252,1.252,0,1,1-.885.367A1.252,1.252,0,0,1,117.522,73.757Zm-3.757,0a1.252,1.252,0,1,1-.885.367A1.252,1.252,0,0,1,113.766,73.757Zm-3.757,0a1.252,1.252,0,1,1-.885.367A1.252,1.252,0,0,1,110.009,73.757ZM137.558,96.3a1.252,1.252,0,0,1-1.252,1.252H108.757A1.252,1.252,0,0,1,107.5,96.3V80.018h30.053Z" fill="#1da1f2"/>
    <path id="Path_78" data-name="Path 78" d="M183.766,227.5H177.5A2.5,2.5,0,0,0,175,230v7.513a1.252,1.252,0,0,0,1.941,1.039l3.444-2.291h3.381a2.5,2.5,0,0,0,2.5-2.5V230a2.5,2.5,0,0,0-2.5-2.5Z" transform="translate(-64.991 -146.23)" fill="#1da1f2"/>
    <path id="Path_79" data-name="Path 79" d="M376.266,280H370a2.5,2.5,0,0,0-2.5,2.5v3.757a2.5,2.5,0,0,0,2.5,2.5h3.381l3.444,2.291a1.252,1.252,0,0,0,1.941-1.039V282.5a2.5,2.5,0,0,0-2.5-2.5Z" transform="translate(-243.717 -194.973)" fill="#1da1f2"/>
  </g>
</svg>
