<svg xmlns="http://www.w3.org/2000/svg" width="36" height="24.278" viewBox="0 0 36 24.278">
  <path id="dashboard" d="M18,5.861A18.012,18.012,0,0,0,1.125,30.139H6.047a13.5,13.5,0,1,1,23.906,0h4.922A18.012,18.012,0,0,0,18,5.861Zm0,7.069a2.25,2.25,0,1,0,2.25,2.25A2.25,2.25,0,0,0,18,12.93Zm-6.748,2.2a2.25,2.25,0,1,0,2.25,2.25A2.25,2.25,0,0,0,11.252,15.134Zm13.5,0A2.25,2.25,0,1,0,27,17.384,2.25,2.25,0,0,0,24.748,15.134ZM18,19.55l-1.764,8.824v1.764h3.529V28.374Z" transform="translate(0 -5.861)" fill="#fff"/>
</svg>
