<svg xmlns="http://www.w3.org/2000/svg" width="28.029" height="28" viewBox="0 0 28.029 28">
  <path id="flow-data" d="M23.166,26.666h-9.5a4.865,4.865,0,0,0-.5-1.167L25.5,13.168a4.5,4.5,0,0,0,2.333.665A4.666,4.666,0,1,0,23.329,8H13.67a4.666,4.666,0,1,0,0,2.333h9.66a4.864,4.864,0,0,0,.5,1.167L11.5,23.831a4.5,4.5,0,0,0-2.333-.665A4.666,4.666,0,1,0,13.671,29h9.5v3.5H32.5V23.166H23.166ZM9.167,11.5A2.333,2.333,0,1,1,11.5,9.167,2.333,2.333,0,0,1,9.167,11.5ZM27.833,6.833A2.333,2.333,0,1,1,25.5,9.167,2.333,2.333,0,0,1,27.833,6.833ZM9.167,30.166A2.333,2.333,0,1,1,11.5,27.832,2.333,2.333,0,0,1,9.167,30.166ZM25.5,25.5h4.666v4.666H25.5Z" transform="translate(-4.485 -4.499)" fill="#979ea3"/>
</svg>
