<svg id="more-o" xmlns="http://www.w3.org/2000/svg" width="30" height="30" viewBox="0 0 30 30">
  <path id="Path_37" data-name="Path 37" d="M10,20a2.5,2.5,0,1,0-2.5-2.5A2.5,2.5,0,0,0,10,20Z" transform="translate(-1.25 -2.5)" fill="#979ea3"/>
  <path id="Path_38" data-name="Path 38" d="M20,17.5A2.5,2.5,0,1,1,17.5,15,2.5,2.5,0,0,1,20,17.5Z" transform="translate(-2.5 -2.5)" fill="#979ea3"/>
  <path id="Path_39" data-name="Path 39" d="M25,20a2.5,2.5,0,1,0-2.5-2.5A2.5,2.5,0,0,0,25,20Z" transform="translate(-3.75 -2.5)" fill="#979ea3"/>
  <path id="Path_40" data-name="Path 40" d="M30,15A15,15,0,1,1,15,0,15,15,0,0,1,30,15Zm-2.5,0A12.5,12.5,0,1,1,15,2.5,12.5,12.5,0,0,1,27.5,15Z" fill="#979ea3" fill-rule="evenodd"/>
</svg>
