<svg xmlns="http://www.w3.org/2000/svg" width="26.5" height="26.5" viewBox="0 0 26.5 26.5">
  <path id="android-bulb" d="M15.5,10.421a5.692,5.692,0,0,1,4.9,8.563,5.8,5.8,0,0,1-2.07,2.043l-.939.548v5.282H13.607V21.575l-.939-.548A5.734,5.734,0,0,1,9.821,16.1,5.7,5.7,0,0,1,15.5,10.421M16.762,2.25H14.238V6.036h2.524ZM24.4,5.436,22.125,7.708l1.767,1.767L26.163,7.2,24.4,5.436ZM6.6,5.436,4.837,7.2,7.108,9.475,8.875,7.708,6.6,5.437Zm8.9,3.093a7.575,7.575,0,0,0-3.786,14.133V28.75h7.571V22.662A7.575,7.575,0,0,0,15.5,8.528Zm13.25,6.31H24.964v2.524H28.75Zm-22.714,0H2.25v2.524H6.036Z" transform="translate(-2.25 -2.25)" fill="#aebabf"/>
</svg>
