<svg xmlns="http://www.w3.org/2000/svg" width="28" height="28" viewBox="0 0 28 28">
  <g id="noun-feed-3244816" transform="translate(-140 -70)">
    <path id="Path_56" data-name="Path 56" d="M351.179,317.341h11.634a1.167,1.167,0,1,0,0-2.333H351.179a1.167,1.167,0,1,0,0,2.333Z" transform="translate(-195.996 -228.674)" fill="#979ea3"/>
    <path id="Path_57" data-name="Path 57" d="M351.179,422.341h11.634a1.167,1.167,0,1,0,0-2.333H351.179a1.167,1.167,0,1,0,0,2.333Z" transform="translate(-195.996 -326.674)" fill="#979ea3"/>
    <path id="Path_58" data-name="Path 58" d="M151.667,281.167A1.167,1.167,0,0,0,150.5,280h-9.333A1.167,1.167,0,0,0,140,281.167v11.667A1.166,1.166,0,0,0,141.167,294H150.5a1.166,1.166,0,0,0,1.167-1.167Zm-2.333,1.167v9.333h-7v-9.333Z" transform="translate(0 -196)" fill="#979ea3"/>
    <path id="Path_59" data-name="Path 59" d="M168,71.167A1.167,1.167,0,0,0,166.833,70H141.167A1.167,1.167,0,0,0,140,71.167V80.5a1.167,1.167,0,0,0,1.167,1.167h25.667A1.167,1.167,0,0,0,168,80.5Zm-2.333,1.167v7H142.333v-7Z" fill="#979ea3"/>
  </g>
</svg>
