<svg xmlns="http://www.w3.org/2000/svg" width="43.161" height="24.338" viewBox="0 0 43.161 24.338">
  <g id="md-camera" transform="translate(3.916 -6.5)">
    <path id="Path_86" data-name="Path 86" d="M178.26,822.5l-.081,0H167.82l-7.164-.1a1.21,1.21,0,0,0-1.168.837L155.3,836.148c-.008.025-.008.05-.015.075l-1.063,3.242a1.206,1.206,0,0,1-1.138.83l-3.66.021a1.2,1.2,0,0,1-1.153-1.577l4.766-14.687a1.205,1.205,0,0,0-1.152-1.577l-5.7.025a1.2,1.2,0,0,0-1.139.829l-5.962,18.162a15.621,15.621,0,0,0-.612,2.642,1.305,1.305,0,0,0,0,.187c.052.928.343,1.514.906,1.725.474.365,1.931.583,4.373.692H159.27a1.2,1.2,0,0,0,.308-.043l11.574.043a9.263,9.263,0,0,0,1.281-.073c1.428-.184,2.344-.66,3.516-3.845l5.273-16.331a7.65,7.65,0,0,0,.4-2.051C181.625,823.2,180.936,822.652,178.26,822.5Zm-6.892,8.936-2.616,7.988a1.211,1.211,0,0,1-1.151.834h-5.35l3.189-9.818a1.21,1.21,0,0,1,1.057-.612l3.728.022A1.211,1.211,0,0,1,171.368,831.438Z" transform="translate(-142.38 -815.902)" fill="#fff"/>
  </g>
</svg>
