<svg xmlns="http://www.w3.org/2000/svg" width="26.634" height="29.553" viewBox="0 0 26.634 29.553">
  <path id="noun-cart-5211491" d="M170.758,63.874a3.4,3.4,0,0,0-2.363-1.141l-3.354-9.493A1.137,1.137,0,0,0,162.9,54l3.079,8.714H150.6L153.675,54a1.137,1.137,0,0,0-2.144-.757l-3.354,9.493A3.384,3.384,0,0,0,145,66.571l1.667,12.5a3.421,3.421,0,0,0,3.38,2.96h16.478a3.422,3.422,0,0,0,3.38-2.96l1.667-12.5a3.412,3.412,0,0,0-.815-2.7ZM153.74,76.35a1.137,1.137,0,1,1-2.273,0V68.394a1.137,1.137,0,1,1,2.273,0Zm5.683,0a1.137,1.137,0,1,1-2.273,0V68.394a1.137,1.137,0,1,1,2.273,0Zm5.683,0a1.137,1.137,0,1,1-2.273,0V68.394a1.137,1.137,0,1,1,2.273,0Z" transform="translate(-144.97 -52.48)" fill="#1da1f2"/>
</svg>
